General
Complete name                    : A.Single.Man.mkv
Format                           : Matroska
File size                        : 906 MiB
Duration                         : 1h 36mn
Overall bit rate                 : 1 316 Kbps
Writing application              : HandBrake 0.9.4

Video
ID                               : 1
Format                           : AVC
Duration                         : 1h 36mn
Bit rate                         : 851 Kbps
Width                            : 720 pixels
Height                           : 428 pixels
Display aspect ratio             : 2.35:1
Stream size                      : 580 MiB (64%)
Writing library                  : x264 core 79

Audio

Format                           : AC-3
Duration                         : 1h 36mn
Bit rate                         : 448 Kbps
Channel(s)                       : 6 channels
Channel positions                : Front: L C R, Side: L R, LFE
Sampling rate                    : 48.0 KHz
Stream size                      : 308 MiB (34%)
Language                         : English

Text #1
Language                         : Swedish

Text #2
Language                         : Danish

Text #3
Language                         : Norwegian

Text #4
Language                         : Finnish

Text #5
Language                         : Icelandic

